<mxfile host="app.diagrams.net" modified="2020-04-24T14:41:22.546Z" agent="5.0 (Windows NT 10.0; Win64; x64) AppleWebKit/537.36 (KHTML, like Gecko) Chrome/80.0.3987.162 Safari/537.36" etag="Ok21JBS_Gog0RyBKeuZs" version="13.0.1" type="github">
  <diagram id="NSn6vi4JX0kTWK7kP5IR" name="Page-1">
    <mxGraphModel dx="1938" dy="834" grid="1" gridSize="10" guides="1" tooltips="1" connect="1" arrows="1" fold="1" page="1" pageScale="1" pageWidth="850" pageHeight="1100" math="0" shadow="0">
      <root>
        <mxCell id="0" />
        <mxCell id="1" parent="0" />
        <mxCell id="skMvCpPRCYF2TfIjfKJV-3" value="" style="edgeStyle=orthogonalEdgeStyle;rounded=0;orthogonalLoop=1;jettySize=auto;html=1;" edge="1" parent="1" source="skMvCpPRCYF2TfIjfKJV-1" target="skMvCpPRCYF2TfIjfKJV-2">
          <mxGeometry relative="1" as="geometry" />
        </mxCell>
        <mxCell id="skMvCpPRCYF2TfIjfKJV-5" value="" style="edgeStyle=orthogonalEdgeStyle;rounded=0;orthogonalLoop=1;jettySize=auto;html=1;" edge="1" parent="1" source="skMvCpPRCYF2TfIjfKJV-1" target="skMvCpPRCYF2TfIjfKJV-4">
          <mxGeometry relative="1" as="geometry" />
        </mxCell>
        <mxCell id="skMvCpPRCYF2TfIjfKJV-11" value="" style="edgeStyle=orthogonalEdgeStyle;rounded=0;orthogonalLoop=1;jettySize=auto;html=1;" edge="1" parent="1" source="skMvCpPRCYF2TfIjfKJV-1" target="skMvCpPRCYF2TfIjfKJV-10">
          <mxGeometry relative="1" as="geometry" />
        </mxCell>
        <mxCell id="skMvCpPRCYF2TfIjfKJV-1" value="McGill University" style="rounded=1;whiteSpace=wrap;html=1;" vertex="1" parent="1">
          <mxGeometry x="400" y="80" width="120" height="60" as="geometry" />
        </mxCell>
        <mxCell id="skMvCpPRCYF2TfIjfKJV-10" value="Dean M Burns" style="rounded=1;whiteSpace=wrap;html=1;" vertex="1" parent="1">
          <mxGeometry x="400" y="160" width="120" height="60" as="geometry" />
        </mxCell>
        <mxCell id="skMvCpPRCYF2TfIjfKJV-9" value="" style="edgeStyle=orthogonalEdgeStyle;rounded=0;orthogonalLoop=1;jettySize=auto;html=1;" edge="1" parent="1" source="skMvCpPRCYF2TfIjfKJV-4" target="skMvCpPRCYF2TfIjfKJV-8">
          <mxGeometry relative="1" as="geometry" />
        </mxCell>
        <mxCell id="skMvCpPRCYF2TfIjfKJV-4" value="Physical Sciences (McGill)" style="rounded=1;whiteSpace=wrap;html=1;" vertex="1" parent="1">
          <mxGeometry x="540" y="210" width="120" height="60" as="geometry" />
        </mxCell>
        <mxCell id="skMvCpPRCYF2TfIjfKJV-8" value="Prof A. Einstein" style="rounded=1;whiteSpace=wrap;html=1;" vertex="1" parent="1">
          <mxGeometry x="540" y="330" width="120" height="60" as="geometry" />
        </mxCell>
        <mxCell id="skMvCpPRCYF2TfIjfKJV-7" value="" style="edgeStyle=orthogonalEdgeStyle;rounded=0;orthogonalLoop=1;jettySize=auto;html=1;" edge="1" parent="1" source="skMvCpPRCYF2TfIjfKJV-2" target="skMvCpPRCYF2TfIjfKJV-6">
          <mxGeometry relative="1" as="geometry" />
        </mxCell>
        <mxCell id="skMvCpPRCYF2TfIjfKJV-2" value="Dept of Engineering (McGill)" style="rounded=1;whiteSpace=wrap;html=1;" vertex="1" parent="1">
          <mxGeometry x="260" y="210" width="120" height="60" as="geometry" />
        </mxCell>
        <mxCell id="skMvCpPRCYF2TfIjfKJV-6" value="Prof G. Volt" style="rounded=1;whiteSpace=wrap;html=1;" vertex="1" parent="1">
          <mxGeometry x="260" y="330" width="120" height="60" as="geometry" />
        </mxCell>
        <mxCell id="skMvCpPRCYF2TfIjfKJV-12" value="&lt;font style=&quot;font-size: 18px&quot;&gt;Demonstration: Background&lt;/font&gt;" style="text;html=1;resizable=0;autosize=1;align=center;verticalAlign=middle;points=[];fillColor=none;strokeColor=none;rounded=0;" vertex="1" parent="1">
          <mxGeometry x="170" y="40" width="240" height="20" as="geometry" />
        </mxCell>
        <mxCell id="skMvCpPRCYF2TfIjfKJV-13" value="" style="shape=umlActor;verticalLabelPosition=bottom;labelBackgroundColor=#ffffff;verticalAlign=top;html=1;outlineConnect=0;" vertex="1" parent="1">
          <mxGeometry x="520" y="150" width="20" height="40" as="geometry" />
        </mxCell>
        <mxCell id="skMvCpPRCYF2TfIjfKJV-15" value="" style="shape=umlActor;verticalLabelPosition=bottom;labelBackgroundColor=#ffffff;verticalAlign=top;html=1;outlineConnect=0;" vertex="1" parent="1">
          <mxGeometry x="380" y="310" width="20" height="40" as="geometry" />
        </mxCell>
        <mxCell id="skMvCpPRCYF2TfIjfKJV-16" value="" style="shape=umlActor;verticalLabelPosition=bottom;labelBackgroundColor=#ffffff;verticalAlign=top;html=1;outlineConnect=0;" vertex="1" parent="1">
          <mxGeometry x="660" y="310" width="20" height="40" as="geometry" />
        </mxCell>
        <mxCell id="skMvCpPRCYF2TfIjfKJV-17" value="" style="shape=umlActor;verticalLabelPosition=bottom;labelBackgroundColor=#ffffff;verticalAlign=top;html=1;outlineConnect=0;" vertex="1" parent="1">
          <mxGeometry x="140" y="460" width="20" height="40" as="geometry" />
        </mxCell>
        <mxCell id="skMvCpPRCYF2TfIjfKJV-18" value="&lt;font style=&quot;font-size: 18px&quot;&gt;Contact&lt;/font&gt;" style="text;html=1;resizable=0;autosize=1;align=left;verticalAlign=middle;points=[];fillColor=none;strokeColor=none;rounded=0;" vertex="1" parent="1">
          <mxGeometry x="170" y="470" width="80" height="20" as="geometry" />
        </mxCell>
        <mxCell id="skMvCpPRCYF2TfIjfKJV-19" value="" style="shape=image;html=1;verticalAlign=top;verticalLabelPosition=bottom;labelBackgroundColor=#ffffff;imageAspect=0;aspect=fixed;image=https://cdn4.iconfinder.com/data/icons/essential-app-1/16/organization-chart-structure-board-128.png;imageBackground=#A9C4EB;" vertex="1" parent="1">
          <mxGeometry x="520" y="40" width="48" height="48" as="geometry" />
        </mxCell>
        <mxCell id="skMvCpPRCYF2TfIjfKJV-20" value="" style="shape=image;html=1;verticalAlign=top;verticalLabelPosition=bottom;labelBackgroundColor=#ffffff;imageAspect=0;aspect=fixed;image=https://cdn4.iconfinder.com/data/icons/essential-app-1/16/organization-chart-structure-board-128.png;imageBackground=#D5E8D4;" vertex="1" parent="1">
          <mxGeometry x="222" y="182" width="38" height="38" as="geometry" />
        </mxCell>
        <mxCell id="skMvCpPRCYF2TfIjfKJV-21" value="" style="shape=image;html=1;verticalAlign=top;verticalLabelPosition=bottom;labelBackgroundColor=#ffffff;imageAspect=0;aspect=fixed;image=https://cdn4.iconfinder.com/data/icons/essential-app-1/16/organization-chart-structure-board-128.png;imageBackground=#D5E8D4;" vertex="1" parent="1">
          <mxGeometry x="660" y="172" width="38" height="38" as="geometry" />
        </mxCell>
        <mxCell id="skMvCpPRCYF2TfIjfKJV-24" value="" style="shape=image;html=1;verticalAlign=top;verticalLabelPosition=bottom;labelBackgroundColor=#ffffff;imageAspect=0;aspect=fixed;image=https://cdn4.iconfinder.com/data/icons/essential-app-1/16/organization-chart-structure-board-128.png;imageBackground=#A9C4EB;" vertex="1" parent="1">
          <mxGeometry x="140" y="540" width="38" height="38" as="geometry" />
        </mxCell>
        <mxCell id="skMvCpPRCYF2TfIjfKJV-25" value="&lt;font style=&quot;font-size: 18px&quot;&gt;Organization&lt;/font&gt;" style="text;html=1;resizable=0;autosize=1;align=left;verticalAlign=middle;points=[];fillColor=none;strokeColor=none;rounded=0;" vertex="1" parent="1">
          <mxGeometry x="180" y="540" width="120" height="20" as="geometry" />
        </mxCell>
        <mxCell id="skMvCpPRCYF2TfIjfKJV-26" value="" style="shape=image;html=1;verticalAlign=top;verticalLabelPosition=bottom;labelBackgroundColor=#ffffff;imageAspect=0;aspect=fixed;image=https://cdn4.iconfinder.com/data/icons/essential-app-1/16/organization-chart-structure-board-128.png;imageBackground=#D5E8D4;" vertex="1" parent="1">
          <mxGeometry x="140" y="620" width="38" height="38" as="geometry" />
        </mxCell>
        <mxCell id="skMvCpPRCYF2TfIjfKJV-27" value="&lt;font style=&quot;font-size: 18px&quot;&gt;Sub-Organization&lt;/font&gt;" style="text;html=1;resizable=0;autosize=1;align=left;verticalAlign=middle;points=[];fillColor=none;strokeColor=none;rounded=0;" vertex="1" parent="1">
          <mxGeometry x="181" y="620" width="150" height="20" as="geometry" />
        </mxCell>
        <mxCell id="skMvCpPRCYF2TfIjfKJV-28" value="" style="verticalLabelPosition=bottom;html=1;verticalAlign=top;align=center;strokeColor=none;fillColor=#00BEF2;shape=mxgraph.azure.startup_task;pointerEvents=1;" vertex="1" parent="1">
          <mxGeometry x="140" y="700" width="20" height="30" as="geometry" />
        </mxCell>
        <mxCell id="skMvCpPRCYF2TfIjfKJV-29" value="&lt;font style=&quot;font-size: 18px&quot;&gt;Activities&lt;/font&gt;" style="text;html=1;resizable=0;autosize=1;align=left;verticalAlign=middle;points=[];fillColor=none;strokeColor=none;rounded=0;" vertex="1" parent="1">
          <mxGeometry x="170" y="705" width="90" height="20" as="geometry" />
        </mxCell>
        <mxCell id="skMvCpPRCYF2TfIjfKJV-30" value="" style="verticalLabelPosition=bottom;html=1;verticalAlign=top;align=center;strokeColor=none;fillColor=#00BEF2;shape=mxgraph.azure.startup_task;pointerEvents=1;" vertex="1" parent="1">
          <mxGeometry x="331" y="400" width="20" height="30" as="geometry" />
        </mxCell>
        <mxCell id="skMvCpPRCYF2TfIjfKJV-33" value="" style="verticalLabelPosition=bottom;html=1;verticalAlign=top;align=center;strokeColor=none;fillColor=#00BEF2;shape=mxgraph.azure.startup_task;pointerEvents=1;" vertex="1" parent="1">
          <mxGeometry x="360" y="400" width="20" height="30" as="geometry" />
        </mxCell>
        <mxCell id="skMvCpPRCYF2TfIjfKJV-36" value="" style="verticalLabelPosition=bottom;html=1;verticalAlign=top;align=center;strokeColor=none;fillColor=#00BEF2;shape=mxgraph.azure.startup_task;pointerEvents=1;" vertex="1" parent="1">
          <mxGeometry x="620" y="400" width="20" height="30" as="geometry" />
        </mxCell>
        <mxCell id="skMvCpPRCYF2TfIjfKJV-37" value="" style="verticalLabelPosition=bottom;html=1;verticalAlign=top;align=center;strokeColor=none;fillColor=#00BEF2;shape=mxgraph.azure.startup_task;pointerEvents=1;" vertex="1" parent="1">
          <mxGeometry x="649" y="400" width="20" height="30" as="geometry" />
        </mxCell>
        <mxCell id="skMvCpPRCYF2TfIjfKJV-38" value="" style="verticalLabelPosition=bottom;html=1;verticalAlign=top;align=center;strokeColor=none;fillColor=#00BEF2;shape=mxgraph.azure.startup_task;pointerEvents=1;" vertex="1" parent="1">
          <mxGeometry x="669" y="240" width="20" height="30" as="geometry" />
        </mxCell>
        <mxCell id="skMvCpPRCYF2TfIjfKJV-39" value="" style="verticalLabelPosition=bottom;html=1;verticalAlign=top;align=center;strokeColor=none;fillColor=#00BEF2;shape=mxgraph.azure.startup_task;pointerEvents=1;" vertex="1" parent="1">
          <mxGeometry x="698" y="240" width="20" height="30" as="geometry" />
        </mxCell>
        <mxCell id="skMvCpPRCYF2TfIjfKJV-40" value="" style="verticalLabelPosition=bottom;html=1;verticalAlign=top;align=center;strokeColor=none;fillColor=#00BEF2;shape=mxgraph.azure.startup_task;pointerEvents=1;" vertex="1" parent="1">
          <mxGeometry x="388" y="244" width="20" height="30" as="geometry" />
        </mxCell>
        <mxCell id="skMvCpPRCYF2TfIjfKJV-41" value="" style="verticalLabelPosition=bottom;html=1;verticalAlign=top;align=center;strokeColor=none;fillColor=#00BEF2;shape=mxgraph.azure.startup_task;pointerEvents=1;" vertex="1" parent="1">
          <mxGeometry x="417" y="244" width="20" height="30" as="geometry" />
        </mxCell>
        <mxCell id="skMvCpPRCYF2TfIjfKJV-42" value="" style="verticalLabelPosition=bottom;html=1;verticalAlign=top;align=center;strokeColor=none;fillColor=#00BEF2;shape=mxgraph.azure.startup_task;pointerEvents=1;" vertex="1" parent="1">
          <mxGeometry x="575.5" y="60" width="20" height="30" as="geometry" />
        </mxCell>
        <mxCell id="skMvCpPRCYF2TfIjfKJV-43" value="" style="verticalLabelPosition=bottom;html=1;verticalAlign=top;align=center;strokeColor=none;fillColor=#00BEF2;shape=mxgraph.azure.startup_task;pointerEvents=1;" vertex="1" parent="1">
          <mxGeometry x="604.5" y="60" width="20" height="30" as="geometry" />
        </mxCell>
      </root>
    </mxGraphModel>
  </diagram>
</mxfile>
